<svg width="24" height="24" viewBox="0 0 24 24" fill="none" xmlns="http://www.w3.org/2000/svg">
<rect x="3" y="3" width="18" height="18" rx="4" fill="#50A6FF"/>
<path fill-rule="evenodd" clip-rule="evenodd" d="M7.8 7.79999C7.8 7.42869 7.9475 7.0726 8.21005 6.81004C8.4726 6.54749 8.8287 6.39999 9.2 6.39999H12.4102C12.7815 6.40007 13.1375 6.54762 13.4 6.81019L15.7898 9.19999C16.0524 9.46248 16.1999 9.81852 16.2 10.1898V16.2C16.2 16.5713 16.0525 16.9274 15.79 17.1899C15.5274 17.4525 15.1713 17.6 14.8 17.6H9.2C8.8287 17.6 8.4726 17.4525 8.21005 17.1899C7.9475 16.9274 7.8 16.5713 7.8 16.2V7.79999ZM9.2 12C9.2 11.8143 9.27375 11.6363 9.40503 11.505C9.5363 11.3737 9.71435 11.3 9.9 11.3H14.1C14.2857 11.3 14.4637 11.3737 14.595 11.505C14.7263 11.6363 14.8 11.8143 14.8 12C14.8 12.1856 14.7263 12.3637 14.595 12.495C14.4637 12.6262 14.2857 12.7 14.1 12.7H9.9C9.71435 12.7 9.5363 12.6262 9.40503 12.495C9.27375 12.3637 9.2 12.1856 9.2 12ZM9.9 14.1C9.71435 14.1 9.5363 14.1737 9.40503 14.305C9.27375 14.4363 9.2 14.6143 9.2 14.8C9.2 14.9856 9.27375 15.1637 9.40503 15.295C9.5363 15.4262 9.71435 15.5 9.9 15.5H14.1C14.2857 15.5 14.4637 15.4262 14.595 15.295C14.7263 15.1637 14.8 14.9856 14.8 14.8C14.8 14.6143 14.7263 14.4363 14.595 14.305C14.4637 14.1737 14.2857 14.1 14.1 14.1H9.9Z" fill="#21252B"/>
</svg>
