<svg width="24" height="24" viewBox="0 0 24 24" fill="none" xmlns="http://www.w3.org/2000/svg">
<rect x="3" y="3" width="18" height="18" rx="4" fill="#6E9EFF"/>
<path fill-rule="evenodd" clip-rule="evenodd" d="M6.39999 11.65C6.39999 12.2998 6.65812 12.9229 7.11758 13.3824C7.57705 13.8419 8.20021 14.1 8.84999 14.1H11.3V15.9102L10.3949 15.0051C10.2629 14.8776 10.0861 14.807 9.90251 14.8086C9.71897 14.8102 9.54341 14.8838 9.41362 15.0136C9.28383 15.1434 9.21022 15.319 9.20862 15.5025C9.20703 15.6861 9.27758 15.8629 9.40509 15.9949L11.5051 18.0949C11.6364 18.2261 11.8144 18.2998 12 18.2998C12.1856 18.2998 12.3636 18.2261 12.4949 18.0949L14.5949 15.9949C14.7224 15.8629 14.793 15.6861 14.7914 15.5025C14.7898 15.319 14.7162 15.1434 14.5864 15.0136C14.4566 14.8838 14.281 14.8102 14.0975 14.8086C13.9139 14.807 13.7371 14.8776 13.6051 15.0051L12.7 15.9102V14.1H14.45C14.8817 14.0997 15.3088 14.0108 15.7046 13.8386C16.1005 13.6663 16.4568 13.4146 16.7513 13.099C17.0458 12.7833 17.2723 12.4105 17.4167 12.0036C17.5611 11.5968 17.6204 11.1646 17.5907 10.7339C17.5611 10.3032 17.4433 9.88319 17.2445 9.49994C17.0458 9.11669 16.7704 8.77838 16.4355 8.50601C16.1005 8.23365 15.7132 8.03304 15.2974 7.91665C14.8817 7.80025 14.4465 7.77056 14.0188 7.8294C13.9361 7.46441 13.7812 7.11968 13.5631 6.81557C13.345 6.51146 13.0681 6.25414 12.7489 6.05879C12.4297 5.86344 12.0746 5.73403 11.7046 5.67819C11.3345 5.62236 10.957 5.64123 10.5944 5.7337C10.2318 5.82617 9.89134 5.99036 9.59321 6.21658C9.29509 6.4428 9.04531 6.72645 8.85863 7.0508C8.67195 7.37515 8.55215 7.73362 8.5063 8.10504C8.46045 8.47645 8.48949 8.85329 8.59169 9.2133C7.98995 9.2771 7.4331 9.56133 7.02843 10.0112C6.62376 10.4611 6.39991 11.0449 6.39999 11.65ZM12.7 14.1H11.3V10.6C11.3 10.4143 11.3737 10.2363 11.505 10.105C11.6363 9.97375 11.8143 9.9 12 9.9C12.1856 9.9 12.3637 9.97375 12.495 10.105C12.6262 10.2363 12.7 10.4143 12.7 10.6V14.1Z" fill="#21252B"/>
</svg>
