<svg width="24" height="24" viewBox="0 0 24 24" fill="none" xmlns="http://www.w3.org/2000/svg">
<rect x="3" y="3" width="18" height="18" rx="4" fill="#C686FF"/>
<path d="M6.39999 9.2C6.39999 8.8287 6.54749 8.4726 6.81004 8.21005C7.0726 7.9475 7.42869 7.8 7.79999 7.8H12C12.3713 7.8 12.7274 7.9475 12.9899 8.21005C13.2525 8.4726 13.4 8.8287 13.4 9.2V14.8C13.4 15.1713 13.2525 15.5274 12.9899 15.79C12.7274 16.0525 12.3713 16.2 12 16.2H7.79999C7.42869 16.2 7.0726 16.0525 6.81004 15.79C6.54749 15.5274 6.39999 15.1713 6.39999 14.8V9.2ZM15.1871 9.9742C15.0708 10.0323 14.973 10.1216 14.9047 10.2321C14.8363 10.3427 14.8001 10.47 14.8 10.6V13.4C14.8001 13.53 14.8363 13.6573 14.9047 13.7679C14.973 13.8784 15.0708 13.9677 15.1871 14.0258L16.5871 14.7258C16.6938 14.7791 16.8123 14.8043 16.9315 14.7989C17.0506 14.7936 17.1664 14.7578 17.2679 14.6951C17.3694 14.6324 17.4532 14.5449 17.5113 14.4407C17.5694 14.3366 17.5999 14.2193 17.6 14.1V9.9C17.5999 9.78073 17.5694 9.66345 17.5113 9.55929C17.4532 9.45514 17.3694 9.36756 17.2679 9.30487C17.1664 9.24218 17.0506 9.20645 16.9315 9.20109C16.8123 9.19572 16.6938 9.22089 16.5871 9.2742L15.1871 9.9742Z" fill="#21252B"/>
</svg>
