<svg width="24" height="24" viewBox="0 0 24 24" fill="none" xmlns="http://www.w3.org/2000/svg">
<rect x="3" y="3" width="18" height="18" rx="4" fill="#8B96FF"/>
<path d="M17.6 7.1C17.5999 6.99647 17.5769 6.89425 17.5326 6.8007C17.4883 6.70715 17.4237 6.62459 17.3437 6.55897C17.2636 6.49336 17.1699 6.44632 17.0695 6.42126C16.9691 6.39619 16.8643 6.39371 16.7628 6.414L9.76279 7.814C9.60417 7.8457 9.46142 7.93137 9.35881 8.05643C9.25621 8.1815 9.20009 8.33823 9.19999 8.5V14.8798C8.97051 14.8263 8.73562 14.7995 8.49999 14.8C7.34009 14.8 6.39999 15.4265 6.39999 16.2C6.39999 16.9735 7.34009 17.6 8.49999 17.6C9.65989 17.6 10.6 16.9735 10.6 16.2V10.474L16.2 9.354V13.4798C15.9705 13.4263 15.7356 13.3995 15.5 13.4C14.3401 13.4 13.4 14.0265 13.4 14.8C13.4 15.5735 14.3401 16.2 15.5 16.2C16.6599 16.2 17.6 15.5735 17.6 14.8V7.1Z" fill="#21252B"/>
</svg>
