<svg width="24" height="24" viewBox="0 0 24 24" fill="none" xmlns="http://www.w3.org/2000/svg">
<rect x="3" y="3" width="18" height="18" rx="4" fill="#A98EFF"/>
<path fill-rule="evenodd" clip-rule="evenodd" d="M7.79999 7.1C7.42869 7.1 7.0726 7.2475 6.81004 7.51005C6.54749 7.7726 6.39999 8.1287 6.39999 8.5V15.5C6.39999 15.8713 6.54749 16.2274 6.81004 16.4899C7.0726 16.7525 7.42869 16.9 7.79999 16.9H16.2C16.5713 16.9 16.9274 16.7525 17.1899 16.4899C17.4525 16.2274 17.6 15.8713 17.6 15.5V8.5C17.6 8.1287 17.4525 7.7726 17.1899 7.51005C16.9274 7.2475 16.5713 7.1 16.2 7.1H7.79999ZM16.2 15.5H7.79999L10.6 9.9L12.7 14.1L14.1 11.3L16.2 15.5Z" fill="#21252B"/>
</svg>
