<svg width="32" height="32" viewBox="0 0 32 32" fill="none" xmlns="http://www.w3.org/2000/svg">
<rect x="3.5" y="6" width="12.5" height="21.5" rx="3" fill="#6E9EFF"/>
<rect x="3" y="10.5" width="25" height="17.5" rx="3" fill="#21252B"/>
<g clip-path="url(#clip0_619_172)">
<path fill-rule="evenodd" clip-rule="evenodd" d="M12.85 19.0375C12.85 19.432 13.0067 19.8104 13.2857 20.0893C13.5646 20.3683 13.943 20.525 14.3375 20.525H15.825V21.6241L15.2755 21.0745C15.1953 20.9971 15.088 20.9543 14.9765 20.9552C14.8651 20.9562 14.7585 21.0009 14.6797 21.0797C14.6009 21.1585 14.5562 21.2651 14.5552 21.3765C14.5543 21.488 14.5971 21.5953 14.6745 21.6755L15.9495 22.9505C16.0292 23.0302 16.1373 23.0749 16.25 23.0749C16.3627 23.0749 16.4708 23.0302 16.5505 22.9505L17.8255 21.6755C17.9029 21.5953 17.9457 21.488 17.9448 21.3765C17.9438 21.2651 17.8991 21.1585 17.8203 21.0797C17.7415 21.0009 17.6349 20.9562 17.5235 20.9552C17.412 20.9543 17.3047 20.9971 17.2245 21.0745L16.675 21.6241V20.525H17.7375C17.9996 20.5248 18.2589 20.4708 18.4993 20.3663C18.7396 20.2617 18.9559 20.1089 19.1347 19.9172C19.3135 19.7256 19.4511 19.4992 19.5387 19.2522C19.6264 19.0052 19.6624 18.7428 19.6444 18.4813C19.6264 18.2198 19.5549 17.9648 19.4342 17.7321C19.3135 17.4994 19.1463 17.294 18.943 17.1287C18.7396 16.9633 18.5044 16.8415 18.252 16.7708C17.9996 16.7002 17.7354 16.6821 17.4757 16.7179C17.4255 16.4963 17.3314 16.287 17.199 16.1023C17.0666 15.9177 16.8985 15.7614 16.7047 15.6428C16.5109 15.5242 16.2953 15.4457 16.0706 15.4118C15.846 15.3779 15.6168 15.3893 15.3966 15.4455C15.1764 15.5016 14.9698 15.6013 14.7887 15.7386C14.6077 15.876 14.4561 16.0482 14.3428 16.2451C14.2294 16.4421 14.1567 16.6597 14.1288 16.8852C14.101 17.1107 14.1186 17.3395 14.1807 17.5581C13.8153 17.5968 13.4772 17.7694 13.2316 18.0425C12.9859 18.3157 12.85 18.6701 12.85 19.0375ZM16.675 20.525H15.825V18.4C15.825 18.2873 15.8698 18.1792 15.9495 18.0995C16.0292 18.0198 16.1373 17.975 16.25 17.975C16.3627 17.975 16.4708 18.0198 16.5505 18.0995C16.6302 18.1792 16.675 18.2873 16.675 18.4V20.525Z" fill="#6E9EFF"/>
</g>
<defs>
<clipPath id="clip0_619_172">
<rect width="8.5" height="8.5" fill="white" transform="translate(12 15)"/>
</clipPath>
</defs>
</svg>
