<svg width="32" height="32" viewBox="0 0 32 32" fill="none" xmlns="http://www.w3.org/2000/svg">
<rect x="3.5" y="6" width="12.5" height="21.5" rx="3" fill="#A98EFF"/>
<rect x="3" y="10.5" width="25" height="17.5" rx="3" fill="#21252B"/>
<path fill-rule="evenodd" clip-rule="evenodd" d="M13.7 16.275C13.4746 16.275 13.2584 16.3646 13.099 16.524C12.9396 16.6834 12.85 16.8996 12.85 17.125V21.375C12.85 21.6004 12.9396 21.8166 13.099 21.976C13.2584 22.1354 13.4746 22.225 13.7 22.225H18.8C19.0254 22.225 19.2416 22.1354 19.401 21.976C19.5605 21.8166 19.65 21.6004 19.65 21.375V17.125C19.65 16.8996 19.5605 16.6834 19.401 16.524C19.2416 16.3646 19.0254 16.275 18.8 16.275H13.7ZM18.8 21.375H13.7L15.4 17.975L16.675 20.525L17.525 18.825L18.8 21.375Z" fill="#A98EFF"/>
</svg>
