<svg width="32" height="32" viewBox="0 0 32 32" fill="none" xmlns="http://www.w3.org/2000/svg">
<rect x="3.5" y="6" width="12.5" height="21.5" rx="3" fill="#50A6FF"/>
<rect x="3" y="10.5" width="25" height="17.5" rx="3" fill="#21252B"/>
<path fill-rule="evenodd" clip-rule="evenodd" d="M13.7 16.7C13.7 16.4746 13.7896 16.2584 13.949 16.099C14.1084 15.9396 14.3246 15.85 14.55 15.85H16.499C16.7245 15.8501 16.9406 15.9396 17.1 16.0991L18.5509 17.55C18.7104 17.7094 18.7999 17.9255 18.8 18.151V21.8C18.8 22.0254 18.7104 22.2416 18.551 22.401C18.3916 22.5605 18.1754 22.65 17.95 22.65H14.55C14.3246 22.65 14.1084 22.5605 13.949 22.401C13.7896 22.2416 13.7 22.0254 13.7 21.8V16.7ZM14.55 19.25C14.55 19.1373 14.5948 19.0292 14.6745 18.9495C14.7542 18.8698 14.8623 18.825 14.975 18.825H17.525C17.6377 18.825 17.7458 18.8698 17.8255 18.9495C17.9052 19.0292 17.95 19.1373 17.95 19.25C17.95 19.3627 17.9052 19.4708 17.8255 19.5505C17.7458 19.6302 17.6377 19.675 17.525 19.675H14.975C14.8623 19.675 14.7542 19.6302 14.6745 19.5505C14.5948 19.4708 14.55 19.3627 14.55 19.25ZM14.975 20.525C14.8623 20.525 14.7542 20.5698 14.6745 20.6495C14.5948 20.7292 14.55 20.8373 14.55 20.95C14.55 21.0627 14.5948 21.1708 14.6745 21.2505C14.7542 21.3302 14.8623 21.375 14.975 21.375H17.525C17.6377 21.375 17.7458 21.3302 17.8255 21.2505C17.9052 21.1708 17.95 21.0627 17.95 20.95C17.95 20.8373 17.9052 20.7292 17.8255 20.6495C17.7458 20.5698 17.6377 20.525 17.525 20.525H14.975Z" fill="#50A6FF"/>
</svg>
