<svg width="32" height="32" viewBox="0 0 32 32" fill="none" xmlns="http://www.w3.org/2000/svg">
<rect x="3.5" y="6" width="12.5" height="21.5" rx="3" fill="#8B96FF"/>
<rect x="3" y="10.5" width="25" height="17.5" rx="3" fill="#21252B"/>
<path d="M19.65 16.275C19.65 16.2121 19.636 16.1501 19.6091 16.0933C19.5822 16.0365 19.543 15.9864 19.4944 15.9465C19.4458 15.9067 19.3889 15.8781 19.3279 15.8629C19.2669 15.8477 19.2033 15.8462 19.1417 15.8585L14.8917 16.7085C14.7954 16.7278 14.7087 16.7798 14.6464 16.8557C14.5841 16.9316 14.5501 17.0268 14.55 17.125V20.9985C14.4107 20.966 14.2681 20.9497 14.125 20.95C13.4208 20.95 12.85 21.3304 12.85 21.8C12.85 22.2696 13.4208 22.65 14.125 22.65C14.8292 22.65 15.4 22.2696 15.4 21.8V18.3235L18.8 17.6435V20.1485C18.6607 20.116 18.5181 20.0997 18.375 20.1C17.6708 20.1 17.1 20.4804 17.1 20.95C17.1 21.4196 17.6708 21.8 18.375 21.8C19.0792 21.8 19.65 21.4196 19.65 20.95V16.275Z" fill="#8B96FF"/>
</svg>
