<svg width="32" height="32" viewBox="0 0 32 32" fill="none" xmlns="http://www.w3.org/2000/svg">
<rect x="3.5" y="6" width="12.5" height="21.5" rx="3" fill="#33AEFF"/>
<rect x="3" y="10.5" width="25" height="17.5" rx="3" fill="#21252B"/>
<path d="M12.35 17.55C12.35 17.3245 12.4396 17.1083 12.599 16.9489C12.7584 16.7895 12.9746 16.7 13.2 16.7H15.325L16.175 17.55H18.3C18.5254 17.55 18.7416 17.6395 18.901 17.7989C19.0605 17.9583 19.15 18.1745 19.15 18.4V20.95C19.15 21.1754 19.0605 21.3916 18.901 21.551C18.7416 21.7104 18.5254 21.8 18.3 21.8H13.2C12.9746 21.8 12.7584 21.7104 12.599 21.551C12.4396 21.3916 12.35 21.1754 12.35 20.95V17.55Z" fill="#33AEFF"/>
</svg>
