<svg width="32" height="32" viewBox="0 0 32 32" fill="none" xmlns="http://www.w3.org/2000/svg">
<rect x="3.5" y="6" width="12.5" height="21.5" rx="3" fill="#C686FF"/>
<rect x="3" y="10.5" width="25" height="17.5" rx="3" fill="#21252B"/>
<path d="M12.85 17.55C12.85 17.3246 12.9396 17.1084 13.099 16.949C13.2584 16.7896 13.4746 16.7 13.7 16.7H16.25C16.4754 16.7 16.6916 16.7896 16.851 16.949C17.0105 17.1084 17.1 17.3246 17.1 17.55V20.95C17.1 21.1754 17.0105 21.3916 16.851 21.551C16.6916 21.7104 16.4754 21.8 16.25 21.8H13.7C13.4746 21.8 13.2584 21.7104 13.099 21.551C12.9396 21.3916 12.85 21.1754 12.85 20.95V17.55ZM18.185 18.02C18.1144 18.0553 18.0551 18.1095 18.0136 18.1766C17.9721 18.2438 17.95 18.3211 17.95 18.4V20.1C17.95 20.1789 17.9721 20.2562 18.0136 20.3233C18.0551 20.3905 18.1144 20.4447 18.185 20.4799L19.035 20.9049C19.0998 20.9373 19.1718 20.9526 19.2441 20.9493C19.3165 20.9461 19.3868 20.9244 19.4484 20.8863C19.51 20.8483 19.5609 20.7951 19.5961 20.7319C19.6314 20.6686 19.65 20.5974 19.65 20.525V17.975C19.65 17.9026 19.6314 17.8314 19.5961 17.7681C19.5609 17.7049 19.51 17.6517 19.4484 17.6137C19.3868 17.5756 19.3165 17.5539 19.2441 17.5507C19.1718 17.5474 19.0998 17.5627 19.035 17.595L18.185 18.02Z" fill="#C686FF"/>
</svg>
