<svg width="32" height="32" viewBox="0 0 32 32" fill="none" xmlns="http://www.w3.org/2000/svg">
<rect x="3.5" y="6" width="12.5" height="21.5" rx="3" fill="#FF69AA"/>
<rect x="3" y="10.5" width="25" height="17.5" rx="3" fill="#21252B"/>
<path d="M16.5505 15.9745C16.4708 15.8949 16.3627 15.8501 16.25 15.8501C16.1373 15.8501 16.0292 15.8949 15.9495 15.9745L12.9745 18.9495C12.8971 19.0297 12.8543 19.137 12.8552 19.2485C12.8562 19.3599 12.9009 19.4665 12.9797 19.5453C13.0585 19.6241 13.1651 19.6688 13.2765 19.6698C13.388 19.6707 13.4953 19.6279 13.5755 19.5505L13.7 19.426V22.225C13.7 22.3377 13.7448 22.4458 13.8245 22.5255C13.9042 22.6052 14.0123 22.65 14.125 22.65H14.975C15.0877 22.65 15.1958 22.6052 15.2755 22.5255C15.3552 22.4458 15.4 22.3377 15.4 22.225V21.375C15.4 21.2623 15.4448 21.1542 15.5245 21.0745C15.6042 20.9948 15.7123 20.95 15.825 20.95H16.675C16.7877 20.95 16.8958 20.9948 16.9755 21.0745C17.0552 21.1542 17.1 21.2623 17.1 21.375V22.225C17.1 22.3377 17.1448 22.4458 17.2245 22.5255C17.3042 22.6052 17.4123 22.65 17.525 22.65H18.375C18.4877 22.65 18.5958 22.6052 18.6755 22.5255C18.7552 22.4458 18.8 22.3377 18.8 22.225V19.426L18.9245 19.5505C19.0047 19.6279 19.112 19.6707 19.2235 19.6698C19.3349 19.6688 19.4415 19.6241 19.5203 19.5453C19.5991 19.4665 19.6438 19.3599 19.6448 19.2485C19.6457 19.137 19.6029 19.0297 19.5255 18.9495L16.5505 15.9745Z" fill="#FF69AA"/>
</svg>
