<svg width="64" height="64" viewBox="0 0 64 64" fill="none" xmlns="http://www.w3.org/2000/svg">
<rect x="8" y="13" width="25" height="43" rx="6" fill="#50A6FF"/>
<rect x="7" y="22" width="50" height="35" rx="6" fill="#21252B"/>
<path fill-rule="evenodd" clip-rule="evenodd" d="M27.4 34.4C27.4 33.9491 27.5791 33.5167 27.8979 33.1979C28.2167 32.8791 28.6491 32.7 29.1 32.7H32.9981C33.4489 32.7001 33.8813 32.8793 34.2 33.1981L37.1019 36.1C37.4207 36.4187 37.5999 36.8511 37.6 37.3019V44.6C37.6 45.0509 37.4209 45.4833 37.1021 45.8021C36.7833 46.1209 36.3509 46.3 35.9 46.3H29.1C28.6491 46.3 28.2167 46.1209 27.8979 45.8021C27.5791 45.4833 27.4 45.0509 27.4 44.6V34.4ZM29.1 39.5C29.1 39.2746 29.1895 39.0584 29.349 38.899C29.5084 38.7396 29.7246 38.65 29.95 38.65H35.05C35.2754 38.65 35.4916 38.7396 35.651 38.899C35.8104 39.0584 35.9 39.2746 35.9 39.5C35.9 39.7254 35.8104 39.9416 35.651 40.101C35.4916 40.2604 35.2754 40.35 35.05 40.35H29.95C29.7246 40.35 29.5084 40.2604 29.349 40.101C29.1895 39.9416 29.1 39.7254 29.1 39.5ZM29.95 42.05C29.7246 42.05 29.5084 42.1396 29.349 42.299C29.1895 42.4584 29.1 42.6746 29.1 42.9C29.1 43.1254 29.1895 43.3416 29.349 43.501C29.5084 43.6604 29.7246 43.75 29.95 43.75H35.05C35.2754 43.75 35.4916 43.6604 35.651 43.501C35.8104 43.3416 35.9 43.1254 35.9 42.9C35.9 42.6746 35.8104 42.4584 35.651 42.299C35.4916 42.1396 35.2754 42.05 35.05 42.05H29.95Z" fill="#50A6FF"/>
</svg>
