<svg width="64" height="64" viewBox="0 0 64 64" fill="none" xmlns="http://www.w3.org/2000/svg">
<rect x="8" y="13" width="25" height="43" rx="6" fill="#A98EFF"/>
<rect x="7" y="22" width="50" height="35" rx="6" fill="#21252B"/>
<path fill-rule="evenodd" clip-rule="evenodd" d="M27.4 33.55C26.9491 33.55 26.5167 33.7291 26.1979 34.0479C25.8791 34.3667 25.7 34.7991 25.7 35.25V43.75C25.7 44.2009 25.8791 44.6333 26.1979 44.9521C26.5167 45.2709 26.9491 45.45 27.4 45.45H37.6C38.0509 45.45 38.4833 45.2709 38.8021 44.9521C39.1209 44.6333 39.3 44.2009 39.3 43.75V35.25C39.3 34.7991 39.1209 34.3667 38.8021 34.0479C38.4833 33.7291 38.0509 33.55 37.6 33.55H27.4ZM37.6 43.75H27.4L30.8 36.95L33.35 42.05L35.05 38.65L37.6 43.75Z" fill="#A98EFF"/>
</svg>
