<svg width="64" height="64" viewBox="0 0 64 64" fill="none" xmlns="http://www.w3.org/2000/svg">
<rect x="8" y="13" width="25" height="43" rx="6" fill="#6E9EFF"/>
<rect x="7" y="22" width="50" height="35" rx="6" fill="#21252B"/>
<path fill-rule="evenodd" clip-rule="evenodd" d="M25.7 39.075C25.7 39.864 26.0134 40.6207 26.5714 41.1786C27.1293 41.7366 27.886 42.05 28.675 42.05H31.65V44.2481L30.551 43.149C30.3906 42.9942 30.1759 42.9085 29.9531 42.9105C29.7302 42.9124 29.517 43.0018 29.3594 43.1594C29.2018 43.317 29.1124 43.5302 29.1105 43.7531C29.1086 43.9759 29.1942 44.1906 29.3491 44.3509L31.8991 46.9009C32.0585 47.0603 32.2746 47.1498 32.5 47.1498C32.7254 47.1498 32.9416 47.0603 33.101 46.9009L35.651 44.3509C35.8058 44.1906 35.8915 43.9759 35.8895 43.7531C35.8876 43.5302 35.7982 43.317 35.6406 43.1594C35.483 43.0018 35.2698 42.9124 35.047 42.9105C34.8241 42.9085 34.6094 42.9942 34.4491 43.149L33.35 44.2481V42.05H35.475C35.9992 42.0497 36.5178 41.9416 36.9985 41.7325C37.4792 41.5234 37.9118 41.2177 38.2695 40.8344C38.6271 40.4512 38.9021 39.9984 39.0775 39.5044C39.2528 39.0104 39.3247 38.4856 39.2888 37.9626C39.2528 37.4396 39.1097 36.9296 38.8684 36.4642C38.6271 35.9988 38.2927 35.588 37.8859 35.2573C37.4792 34.9266 37.0088 34.683 36.504 34.5416C35.9992 34.4003 35.4707 34.3642 34.9514 34.4357C34.851 33.9925 34.6629 33.5739 34.398 33.2046C34.1332 32.8353 33.797 32.5229 33.4094 32.2857C33.0218 32.0485 32.5906 31.8913 32.1413 31.8235C31.6919 31.7557 31.2336 31.7786 30.7932 31.8909C30.3529 32.0032 29.9395 32.2026 29.5775 32.4773C29.2155 32.752 28.9122 33.0964 28.6855 33.4903C28.4588 33.8841 28.3133 34.3194 28.2577 34.7704C28.202 35.2214 28.2373 35.679 28.3614 36.1161C27.6307 36.1936 26.9545 36.5388 26.4631 37.0851C25.9717 37.6314 25.6999 38.3402 25.7 39.075ZM33.35 42.05H31.65V37.8C31.65 37.5746 31.7396 37.3584 31.899 37.199C32.0584 37.0396 32.2746 36.95 32.5 36.95C32.7254 36.95 32.9416 37.0396 33.1011 37.199C33.2605 37.3584 33.35 37.5746 33.35 37.8V42.05Z" fill="#6E9EFF"/>
</svg>
