<svg width="64" height="64" viewBox="0 0 64 64" fill="none" xmlns="http://www.w3.org/2000/svg">
<rect x="8" y="13" width="25" height="43" rx="6" fill="#C686FF"/>
<rect x="7" y="22" width="50" height="35" rx="6" fill="#21252B"/>
<path d="M25.7 36.1C25.7 35.6491 25.8791 35.2167 26.1979 34.8979C26.5167 34.5791 26.9491 34.4 27.4 34.4H32.5C32.9509 34.4 33.3833 34.5791 33.7021 34.8979C34.0209 35.2167 34.2 35.6491 34.2 36.1V42.9C34.2 43.3509 34.0209 43.7833 33.7021 44.1021C33.3833 44.4209 32.9509 44.6 32.5 44.6H27.4C26.9491 44.6 26.5167 44.4209 26.1979 44.1021C25.8791 43.7833 25.7 43.3509 25.7 42.9V36.1ZM36.3701 37.0401C36.2289 37.1106 36.1102 37.2191 36.0271 37.3533C35.9441 37.4875 35.9001 37.6422 35.9 37.8V41.2C35.9001 41.3578 35.9441 41.5125 36.0271 41.6467C36.1102 41.7809 36.2289 41.8894 36.3701 41.9599L38.0701 42.8099C38.1996 42.8746 38.3436 42.9052 38.4883 42.8987C38.6329 42.8922 38.7736 42.8488 38.8968 42.7727C39.02 42.6965 39.1217 42.5902 39.1923 42.4637C39.2629 42.3372 39.2999 42.1948 39.3 42.05V36.95C39.2999 36.8052 39.2629 36.6628 39.1923 36.5363C39.1217 36.4098 39.02 36.3035 38.8968 36.2273C38.7736 36.1512 38.6329 36.1078 38.4883 36.1013C38.3436 36.0948 38.1996 36.1254 38.0701 36.1901L36.3701 37.0401Z" fill="#C686FF"/>
</svg>
