<svg width="64" height="64" viewBox="0 0 64 64" fill="none" xmlns="http://www.w3.org/2000/svg">
<rect x="8" y="13" width="25" height="43" rx="6" fill="#8B96FF"/>
<rect x="7" y="22" width="50" height="35" rx="6" fill="#21252B"/>
<path d="M39.3 33.55C39.2999 33.4243 39.272 33.3002 39.2182 33.1866C39.1643 33.073 39.086 32.9727 38.9887 32.893C38.8915 32.8134 38.7778 32.7563 38.6558 32.7258C38.5339 32.6954 38.4067 32.6924 38.2834 32.717L29.7834 34.417C29.5908 34.4555 29.4175 34.5595 29.2929 34.7114C29.1683 34.8632 29.1001 35.0536 29.1 35.25V42.9969C28.8214 42.932 28.5361 42.8994 28.25 42.9C26.8416 42.9 25.7 43.6607 25.7 44.6C25.7 45.5392 26.8416 46.3 28.25 46.3C29.6585 46.3 30.8 45.5392 30.8 44.6V37.647L37.6 36.287V41.2969C37.3214 41.232 37.0361 41.1995 36.75 41.2C35.3416 41.2 34.2 41.9607 34.2 42.9C34.2 43.8392 35.3416 44.6 36.75 44.6C38.1585 44.6 39.3 43.8392 39.3 42.9V33.55Z" fill="#8B96FF"/>
</svg>
