<svg width="64" height="64" viewBox="0 0 64 64" fill="none" xmlns="http://www.w3.org/2000/svg">
<rect x="8" y="13" width="25" height="43" rx="6" fill="#FF69AA"/>
<rect x="7" y="22" width="50" height="35" rx="6" fill="#21252B"/>
<path d="M33.101 32.949C32.9416 32.7897 32.7254 32.7002 32.5 32.7002C32.2746 32.7002 32.0585 32.7897 31.8991 32.949L25.9491 38.899C25.7942 39.0594 25.7085 39.2741 25.7105 39.4969C25.7124 39.7198 25.8018 39.933 25.9594 40.0906C26.117 40.2482 26.3302 40.3376 26.5531 40.3395C26.7759 40.3415 26.9906 40.2558 27.151 40.1009L27.4 39.8519V45.45C27.4 45.6754 27.4896 45.8916 27.649 46.051C27.8084 46.2104 28.0246 46.3 28.25 46.3H29.95C30.1754 46.3 30.3916 46.2104 30.551 46.051C30.7105 45.8916 30.8 45.6754 30.8 45.45V43.75C30.8 43.5246 30.8896 43.3084 31.049 43.149C31.2084 42.9896 31.4246 42.9 31.65 42.9H33.35C33.5754 42.9 33.7916 42.9896 33.951 43.149C34.1105 43.3084 34.2 43.5246 34.2 43.75V45.45C34.2 45.6754 34.2896 45.8916 34.449 46.051C34.6084 46.2104 34.8246 46.3 35.05 46.3H36.75C36.9754 46.3 37.1916 46.2104 37.351 46.051C37.5105 45.8916 37.6 45.6754 37.6 45.45V39.8519L37.8491 40.1009C38.0094 40.2558 38.2241 40.3415 38.4469 40.3395C38.6698 40.3376 38.883 40.2482 39.0406 40.0906C39.1982 39.933 39.2876 39.7198 39.2895 39.4969C39.2915 39.2741 39.2058 39.0594 39.051 38.899L33.101 32.949Z" fill="#FF69AA"/>
</svg>
