<svg width="48" height="48" viewBox="0 0 48 48" fill="none" xmlns="http://www.w3.org/2000/svg">
<rect x="6.70001" y="10.2" width="17.5" height="30.1" rx="4" fill="#33AEFF"/>
<rect x="6" y="16.5" width="35" height="24.5" rx="4" fill="#21252B"/>
<path d="M19.09 26.37C19.09 26.0544 19.2154 25.7517 19.4385 25.5285C19.6617 25.3054 19.9644 25.18 20.28 25.18H23.255L24.445 26.37H27.42C27.7356 26.37 28.0383 26.4954 28.2615 26.7185C28.4846 26.9417 28.61 27.2444 28.61 27.56V31.13C28.61 31.4456 28.4846 31.7483 28.2615 31.9714C28.0383 32.1946 27.7356 32.32 27.42 32.32H20.28C19.9644 32.32 19.6617 32.1946 19.4385 31.9714C19.2154 31.7483 19.09 31.4456 19.09 31.13V26.37Z" fill="#33AEFF"/>
</svg>
