<svg width="48" height="48" viewBox="0 0 48 48" fill="none" xmlns="http://www.w3.org/2000/svg">
<rect x="6.70001" y="10.2" width="17.5" height="30.1" rx="4" fill="#50A6FF"/>
<rect x="6" y="16.5" width="35" height="24.5" rx="4" fill="#21252B"/>
<path fill-rule="evenodd" clip-rule="evenodd" d="M20.38 25.38C20.38 25.0644 20.5054 24.7617 20.7285 24.5385C20.9517 24.3154 21.2544 24.19 21.57 24.19H24.2987C24.6143 24.1901 24.9169 24.3155 25.14 24.5387L27.1713 26.57C27.3945 26.7931 27.5199 27.0958 27.52 27.4113V32.52C27.52 32.8356 27.3946 33.1383 27.1715 33.3615C26.9483 33.5846 26.6456 33.71 26.33 33.71H21.57C21.2544 33.71 20.9517 33.5846 20.7285 33.3615C20.5054 33.1383 20.38 32.8356 20.38 32.52V25.38ZM21.57 28.95C21.57 28.7922 21.6327 28.6409 21.7443 28.5293C21.8559 28.4177 22.0072 28.355 22.165 28.355H25.735C25.8928 28.355 26.0441 28.4177 26.1557 28.5293C26.2673 28.6409 26.33 28.7922 26.33 28.95C26.33 29.1078 26.2673 29.2591 26.1557 29.3707C26.0441 29.4823 25.8928 29.545 25.735 29.545H22.165C22.0072 29.545 21.8559 29.4823 21.7443 29.3707C21.6327 29.2591 21.57 29.1078 21.57 28.95ZM22.165 30.735C22.0072 30.735 21.8559 30.7977 21.7443 30.9093C21.6327 31.0209 21.57 31.1722 21.57 31.33C21.57 31.4878 21.6327 31.6391 21.7443 31.7507C21.8559 31.8623 22.0072 31.925 22.165 31.925H25.735C25.8928 31.925 26.0441 31.8623 26.1557 31.7507C26.2673 31.6391 26.33 31.4878 26.33 31.33C26.33 31.1722 26.2673 31.0209 26.1557 30.9093C26.0441 30.7977 25.8928 30.735 25.735 30.735H22.165Z" fill="#50A6FF"/>
</svg>
