<svg width="48" height="48" viewBox="0 0 48 48" fill="none" xmlns="http://www.w3.org/2000/svg">
<rect x="6.70001" y="10.2" width="17.5" height="30.1" rx="4" fill="#8B96FF"/>
<rect x="6" y="16.5" width="35" height="24.5" rx="4" fill="#21252B"/>
<path d="M28.71 24.785C28.7099 24.697 28.6904 24.6101 28.6527 24.5306C28.615 24.4511 28.5602 24.3809 28.4921 24.3251C28.424 24.2694 28.3445 24.2294 28.2591 24.2081C28.1737 24.1868 28.0847 24.1847 27.9984 24.2019L22.0484 25.3919C21.9135 25.4189 21.7922 25.4917 21.705 25.598C21.6178 25.7043 21.5701 25.8375 21.57 25.975V31.3978C21.3749 31.3524 21.1753 31.3296 20.975 31.33C19.9891 31.33 19.19 31.8625 19.19 32.52C19.19 33.1775 19.9891 33.71 20.975 33.71C21.9609 33.71 22.76 33.1775 22.76 32.52V27.6529L27.52 26.7009V30.2078C27.3249 30.1624 27.1253 30.1396 26.925 30.14C25.9391 30.14 25.14 30.6725 25.14 31.33C25.14 31.9875 25.9391 32.52 26.925 32.52C27.9109 32.52 28.71 31.9875 28.71 31.33V24.785Z" fill="#8B96FF"/>
</svg>
