<svg width="48" height="48" viewBox="0 0 48 48" fill="none" xmlns="http://www.w3.org/2000/svg">
<rect x="6.70001" y="10.2" width="17.5" height="30.1" rx="4" fill="#A98EFF"/>
<rect x="6" y="16.5" width="35" height="24.5" rx="4" fill="#21252B"/>
<path fill-rule="evenodd" clip-rule="evenodd" d="M20.38 24.785C20.0644 24.785 19.7617 24.9104 19.5385 25.1335C19.3154 25.3567 19.19 25.6594 19.19 25.975V31.925C19.19 32.2406 19.3154 32.5433 19.5385 32.7665C19.7617 32.9896 20.0644 33.115 20.38 33.115H27.52C27.8356 33.115 28.1383 32.9896 28.3615 32.7665C28.5846 32.5433 28.71 32.2406 28.71 31.925V25.975C28.71 25.6594 28.5846 25.3567 28.3615 25.1335C28.1383 24.9104 27.8356 24.785 27.52 24.785H20.38ZM27.52 31.925H20.38L22.76 27.165L24.545 30.735L25.735 28.355L27.52 31.925Z" fill="#A98EFF"/>
</svg>
