<svg width="48" height="48" viewBox="0 0 48 48" fill="none" xmlns="http://www.w3.org/2000/svg">
<rect x="6.70001" y="10.2" width="17.5" height="30.1" rx="4" fill="#C686FF"/>
<rect x="6" y="16.5" width="35" height="24.5" rx="4" fill="#21252B"/>
<path d="M19.19 26.57C19.19 26.2544 19.3154 25.9517 19.5385 25.7285C19.7617 25.5054 20.0644 25.38 20.38 25.38H23.95C24.2656 25.38 24.5683 25.5054 24.7915 25.7285C25.0146 25.9517 25.14 26.2544 25.14 26.57V31.33C25.14 31.6456 25.0146 31.9483 24.7915 32.1715C24.5683 32.3946 24.2656 32.52 23.95 32.52H20.38C20.0644 32.52 19.7617 32.3946 19.5385 32.1715C19.3154 31.9483 19.19 31.6456 19.19 31.33V26.57ZM26.659 27.2281C26.5602 27.2774 26.4771 27.3534 26.419 27.4473C26.3609 27.5413 26.3301 27.6495 26.33 27.76V30.14C26.3301 30.2505 26.3609 30.3587 26.419 30.4527C26.4771 30.5466 26.5602 30.6225 26.659 30.6719L27.849 31.2669C27.9397 31.3122 28.0405 31.3336 28.1418 31.3291C28.2431 31.3245 28.3415 31.2942 28.4277 31.2409C28.514 31.1876 28.5852 31.1131 28.6346 31.0246C28.684 30.9361 28.7099 30.8364 28.71 30.735V27.165C28.7099 27.0636 28.684 26.9639 28.6346 26.8754C28.5852 26.7869 28.514 26.7124 28.4277 26.6591C28.3415 26.6058 28.2431 26.5755 28.1418 26.5709C28.0405 26.5664 27.9397 26.5877 27.849 26.6331L26.659 27.2281Z" fill="#C686FF"/>
</svg>
