<svg width="48" height="48" viewBox="0 0 48 48" fill="none" xmlns="http://www.w3.org/2000/svg">
<rect x="6.70001" y="10.2" width="17.5" height="30.1" rx="4" fill="#6E9EFF"/>
<rect x="6" y="16.5" width="35" height="24.5" rx="4" fill="#21252B"/>
<g clip-path="url(#clip0_619_165)">
<path fill-rule="evenodd" clip-rule="evenodd" d="M19.19 28.6525C19.19 29.2048 19.4094 29.7345 19.8 30.1251C20.1905 30.5156 20.7202 30.735 21.2725 30.735H23.355V32.2737L22.5857 31.5043C22.4734 31.396 22.3232 31.336 22.1671 31.3373C22.0111 31.3387 21.8619 31.4013 21.7516 31.5116C21.6413 31.6219 21.5787 31.7711 21.5773 31.9271C21.576 32.0832 21.636 32.2334 21.7443 32.3457L23.5293 34.1307C23.6409 34.2422 23.7922 34.3049 23.95 34.3049C24.1078 34.3049 24.2591 34.2422 24.3707 34.1307L26.1557 32.3457C26.2641 32.2334 26.324 32.0832 26.3227 31.9271C26.3213 31.7711 26.2587 31.6219 26.1484 31.5116C26.0381 31.4013 25.8889 31.3387 25.7329 31.3373C25.5769 31.336 25.4266 31.396 25.3143 31.5043L24.545 32.2737V30.735H26.0325C26.3995 30.7348 26.7625 30.6591 27.099 30.5128C27.4355 30.3664 27.7383 30.1524 27.9886 29.8841C28.239 29.6158 28.4315 29.2989 28.5542 28.9531C28.677 28.6073 28.7273 28.2399 28.7021 27.8738C28.677 27.5077 28.5768 27.1507 28.4079 26.825C28.2389 26.4992 28.0049 26.2116 27.7202 25.9801C27.4354 25.7486 27.1062 25.5781 26.7528 25.4792C26.3994 25.3802 26.0295 25.355 25.666 25.405C25.5957 25.0948 25.464 24.8017 25.2786 24.5432C25.0932 24.2847 24.8579 24.066 24.5866 23.9C24.3153 23.7339 24.0134 23.6239 23.6989 23.5765C23.3843 23.529 23.0635 23.545 22.7552 23.6236C22.447 23.7022 22.1576 23.8418 21.9042 24.0341C21.6508 24.2264 21.4385 24.4675 21.2798 24.7432C21.1212 25.0189 21.0193 25.3236 20.9804 25.6393C20.9414 25.955 20.9661 26.2753 21.0529 26.5813C20.5415 26.6355 20.0681 26.8771 19.7242 27.2596C19.3802 27.642 19.1899 28.1382 19.19 28.6525ZM24.545 30.735H23.355V27.76C23.355 27.6022 23.4177 27.4509 23.5293 27.3393C23.6409 27.2277 23.7922 27.165 23.95 27.165C24.1078 27.165 24.2591 27.2277 24.3707 27.3393C24.4823 27.4509 24.545 27.6022 24.545 27.76V30.735Z" fill="#6E9EFF"/>
</g>
<defs>
<clipPath id="clip0_619_165">
<rect width="11.9" height="11.9" fill="white" transform="translate(18 23)"/>
</clipPath>
</defs>
</svg>
