<svg width="48" height="48" viewBox="0 0 48 48" fill="none" xmlns="http://www.w3.org/2000/svg">
<rect x="6.70001" y="10.2" width="17.5" height="30.1" rx="4" fill="#FF69AA"/>
<rect x="6" y="16.5" width="35" height="24.5" rx="4" fill="#21252B"/>
<path d="M24.3707 24.3643C24.2591 24.2528 24.1078 24.1901 23.95 24.1901C23.7922 24.1901 23.6409 24.2528 23.5293 24.3643L19.3643 28.5293C19.256 28.6416 19.196 28.7918 19.1973 28.9479C19.1987 29.1039 19.2613 29.2531 19.3716 29.3634C19.4819 29.4737 19.6311 29.5363 19.7871 29.5377C19.9431 29.539 20.0934 29.479 20.2057 29.3707L20.38 29.1963V33.115C20.38 33.2728 20.4427 33.4241 20.5543 33.5357C20.6659 33.6473 20.8172 33.71 20.975 33.71H22.165C22.3228 33.71 22.4741 33.6473 22.5857 33.5357C22.6973 33.4241 22.76 33.2728 22.76 33.115V31.925C22.76 31.7672 22.8227 31.6159 22.9343 31.5043C23.0459 31.3927 23.1972 31.33 23.355 31.33H24.545C24.7028 31.33 24.8541 31.3927 24.9657 31.5043C25.0773 31.6159 25.14 31.7672 25.14 31.925V33.115C25.14 33.2728 25.2027 33.4241 25.3143 33.5357C25.4259 33.6473 25.5772 33.71 25.735 33.71H26.925C27.0828 33.71 27.2341 33.6473 27.3457 33.5357C27.4573 33.4241 27.52 33.2728 27.52 33.115V29.1963L27.6943 29.3707C27.8066 29.479 27.9569 29.539 28.1129 29.5377C28.2689 29.5363 28.4181 29.4737 28.5284 29.3634C28.6387 29.2531 28.7013 29.1039 28.7027 28.9479C28.704 28.7918 28.644 28.6416 28.5357 28.5293L24.3707 24.3643Z" fill="#FF69AA"/>
</svg>
