<svg width="22" height="22" viewBox="0 0 22 22" fill="none" xmlns="http://www.w3.org/2000/svg">
<rect x="2" y="2" width="18" height="18" rx="4" fill="#A98EFF"/>
<path fill-rule="evenodd" clip-rule="evenodd" d="M6.79999 6.1C6.42869 6.1 6.0726 6.2475 5.81004 6.51005C5.54749 6.7726 5.39999 7.1287 5.39999 7.5V14.5C5.39999 14.8713 5.54749 15.2274 5.81004 15.4899C6.0726 15.7525 6.42869 15.9 6.79999 15.9H15.2C15.5713 15.9 15.9274 15.7525 16.1899 15.4899C16.4525 15.2274 16.6 14.8713 16.6 14.5V7.5C16.6 7.1287 16.4525 6.7726 16.1899 6.51005C15.9274 6.2475 15.5713 6.1 15.2 6.1H6.79999ZM15.2 14.5H6.79999L9.59999 8.9L11.7 13.1L13.1 10.3L15.2 14.5Z" fill="#21252B"/>
</svg>
