<svg width="22" height="22" viewBox="0 0 22 22" fill="none" xmlns="http://www.w3.org/2000/svg">
<rect x="2" y="2" width="18" height="18" rx="4" fill="#6E9EFF"/>
<path fill-rule="evenodd" clip-rule="evenodd" d="M5.39999 10.65C5.39999 11.2998 5.65812 11.9229 6.11758 12.3824C6.57705 12.8419 7.20021 13.1 7.84999 13.1H10.3V14.9102L9.39489 14.0051C9.26287 13.8776 9.08605 13.807 8.90251 13.8086C8.71897 13.8102 8.54341 13.8838 8.41362 14.0136C8.28383 14.1434 8.21022 14.319 8.20862 14.5025C8.20703 14.6861 8.27758 14.8629 8.40509 14.9949L10.5051 17.0949C10.6364 17.2261 10.8144 17.2998 11 17.2998C11.1856 17.2998 11.3636 17.2261 11.4949 17.0949L13.5949 14.9949C13.7224 14.8629 13.793 14.6861 13.7914 14.5025C13.7898 14.319 13.7162 14.1434 13.5864 14.0136C13.4566 13.8838 13.281 13.8102 13.0975 13.8086C12.9139 13.807 12.7371 13.8776 12.6051 14.0051L11.7 14.9102V13.1H13.45C13.8817 13.0997 14.3088 13.0108 14.7046 12.8386C15.1005 12.6663 15.4568 12.4146 15.7513 12.099C16.0458 11.7833 16.2723 11.4105 16.4167 11.0036C16.5611 10.5968 16.6204 10.1646 16.5907 9.7339C16.5611 9.3032 16.4433 8.88319 16.2445 8.49994C16.0458 8.11669 15.7704 7.77838 15.4355 7.50601C15.1005 7.23365 14.7132 7.03304 14.2974 6.91665C13.8817 6.80025 13.4465 6.77056 13.0188 6.8294C12.9361 6.46441 12.7812 6.11968 12.5631 5.81557C12.345 5.51146 12.0681 5.25414 11.7489 5.05879C11.4297 4.86344 11.0746 4.73403 10.7046 4.67819C10.3345 4.62236 9.95703 4.64123 9.5944 4.7337C9.23177 4.82617 8.89134 4.99036 8.59321 5.21658C8.29509 5.4428 8.04531 5.72645 7.85863 6.0508C7.67195 6.37515 7.55215 6.73362 7.5063 7.10504C7.46045 7.47645 7.48949 7.85329 7.59169 8.2133C6.98995 8.2771 6.4331 8.56133 6.02843 9.01123C5.62376 9.46114 5.39991 10.0449 5.39999 10.65ZM11.7 13.1H10.3V9.6C10.3 9.41435 10.3737 9.2363 10.505 9.10503C10.6363 8.97375 10.8143 8.9 11 8.9C11.1856 8.9 11.3637 8.97375 11.495 9.10503C11.6262 9.2363 11.7 9.41435 11.7 9.6V13.1Z" fill="#21252B"/>
</svg>
