<svg width="22" height="22" viewBox="0 0 22 22" fill="none" xmlns="http://www.w3.org/2000/svg">
<g clip-path="url(#clip0)">
<rect x="2" y="2" width="18" height="15.3529" rx="2" fill="url(#paint0_linear)"/>
<g filter="url(#filter0_d)">
<rect x="5.2" y="5.19999" width="12" height="12" rx="1" fill="#F9F9F9"/>
</g>
<rect x="5.91467" y="5.91473" width="8.4" height="0.4" fill="#C4C4C4"/>
<rect x="5.91461" y="10.7147" width="8.8" height="0.4" fill="#C4C4C4"/>
<rect x="5.91461" y="9.91474" width="6.8" height="0.4" fill="#C4C4C4"/>
<rect x="5.91461" y="9.11471" width="8" height="0.4" fill="#C4C4C4"/>
<rect x="5.91461" y="8.31471" width="10.4" height="0.4" fill="#C4C4C4"/>
<rect x="5.91461" y="7.51472" width="8" height="0.4" fill="#C4C4C4"/>
<rect x="5.91461" y="6.71472" width="9.6" height="0.4" fill="#C4C4C4"/>
<path d="M2 13H20V18C20 19.1046 19.1046 20 18 20H4C2.89543 20 2 19.1046 2 18V13Z" fill="#363A44"/>
</g>
<defs>
<filter id="filter0_d" x="0.199997" y="0.199994" width="22" height="22" filterUnits="userSpaceOnUse" color-interpolation-filters="sRGB">
<feFlood flood-opacity="0" result="BackgroundImageFix"/>
<feColorMatrix in="SourceAlpha" type="matrix" values="0 0 0 0 0 0 0 0 0 0 0 0 0 0 0 0 0 0 127 0" result="hardAlpha"/>
<feOffset/>
<feGaussianBlur stdDeviation="2.5"/>
<feColorMatrix type="matrix" values="0 0 0 0 0 0 0 0 0 0 0 0 0 0 0 0 0 0 0.11 0"/>
<feBlend mode="normal" in2="BackgroundImageFix" result="effect1_dropShadow"/>
<feBlend mode="normal" in="SourceGraphic" in2="effect1_dropShadow" result="shape"/>
</filter>
<linearGradient id="paint0_linear" x1="-8" y1="2" x2="30.5737" y2="9.88527" gradientUnits="userSpaceOnUse">
<stop stop-color="#0093E9"/>
<stop offset="1" stop-color="#80D0C7"/>
</linearGradient>
<clipPath id="clip0">
<rect width="22" height="22" fill="white"/>
</clipPath>
</defs>
</svg>
