<svg width="22" height="22" viewBox="0 0 22 22" fill="none" xmlns="http://www.w3.org/2000/svg">
<rect x="2" y="2" width="18" height="18" rx="4" fill="#8B96FF"/>
<path d="M16.6 6.1C16.5999 5.99647 16.5769 5.89425 16.5326 5.8007C16.4883 5.70715 16.4237 5.62459 16.3437 5.55897C16.2636 5.49336 16.1699 5.44632 16.0695 5.42126C15.9691 5.39619 15.8643 5.39371 15.7628 5.414L8.76279 6.814C8.60417 6.8457 8.46142 6.93137 8.35881 7.05643C8.25621 7.1815 8.20009 7.33823 8.19999 7.5V13.8798C7.97051 13.8263 7.73562 13.7995 7.49999 13.8C6.34009 13.8 5.39999 14.4265 5.39999 15.2C5.39999 15.9735 6.34009 16.6 7.49999 16.6C8.65989 16.6 9.59999 15.9735 9.59999 15.2V9.474L15.2 8.354V12.4798C14.9705 12.4263 14.7356 12.3995 14.5 12.4C13.3401 12.4 12.4 13.0265 12.4 13.8C12.4 14.5735 13.3401 15.2 14.5 15.2C15.6599 15.2 16.6 14.5735 16.6 13.8V6.1Z" fill="#21252B"/>
</svg>
