<svg width="22" height="22" viewBox="0 0 22 22" fill="none" xmlns="http://www.w3.org/2000/svg">
<rect x="2" y="2" width="18" height="18" rx="4" fill="#C686FF"/>
<path d="M5.39999 8.2C5.39999 7.8287 5.54749 7.4726 5.81004 7.21005C6.0726 6.9475 6.42869 6.8 6.79999 6.8H11C11.3713 6.8 11.7274 6.9475 11.9899 7.21005C12.2525 7.4726 12.4 7.8287 12.4 8.2V13.8C12.4 14.1713 12.2525 14.5274 11.9899 14.79C11.7274 15.0525 11.3713 15.2 11 15.2H6.79999C6.42869 15.2 6.0726 15.0525 5.81004 14.79C5.54749 14.5274 5.39999 14.1713 5.39999 13.8V8.2ZM14.1871 8.9742C14.0708 9.0323 13.973 9.12161 13.9047 9.23214C13.8363 9.34266 13.8001 9.47004 13.8 9.6V12.4C13.8001 12.53 13.8363 12.6573 13.9047 12.7679C13.973 12.8784 14.0708 12.9677 14.1871 13.0258L15.5871 13.7258C15.6938 13.7791 15.8123 13.8043 15.9315 13.7989C16.0506 13.7936 16.1664 13.7578 16.2679 13.6951C16.3694 13.6324 16.4532 13.5449 16.5113 13.4407C16.5694 13.3366 16.5999 13.2193 16.6 13.1V8.9C16.5999 8.78073 16.5694 8.66345 16.5113 8.55929C16.4532 8.45514 16.3694 8.36756 16.2679 8.30487C16.1664 8.24218 16.0506 8.20645 15.9315 8.20109C15.8123 8.19572 15.6938 8.22089 15.5871 8.2742L14.1871 8.9742Z" fill="#21252B"/>
</svg>
