<svg width="22" height="22" viewBox="0 0 22 22" fill="none" xmlns="http://www.w3.org/2000/svg">
<rect x="2" y="2" width="18" height="18" rx="3" fill="#CE9EF9"/>
<path d="M5.39999 8.2C5.39999 7.8287 5.54749 7.4726 5.81004 7.21005C6.0726 6.9475 6.42869 6.8 6.79999 6.8H10.3L11.7 8.2H15.2C15.5713 8.2 15.9274 8.3475 16.1899 8.61005C16.4525 8.8726 16.6 9.2287 16.6 9.6V13.8C16.6 14.1713 16.4525 14.5274 16.1899 14.7899C15.9274 15.0525 15.5713 15.2 15.2 15.2H6.79999C6.42869 15.2 6.0726 15.0525 5.81004 14.7899C5.54749 14.5274 5.39999 14.1713 5.39999 13.8V8.2Z" fill="#21252B"/>
</svg>
