<svg width="22" height="22" viewBox="0 0 22 22" fill="none" xmlns="http://www.w3.org/2000/svg">
<rect x="2" y="2" width="18" height="18" rx="3" fill="#FF69AA"/>
<path d="M11.4949 5.6051C11.3636 5.47387 11.1856 5.40015 11 5.40015C10.8144 5.40015 10.6364 5.47387 10.5051 5.6051L5.6051 10.5051C5.47759 10.6371 5.40703 10.8139 5.40863 10.9975C5.41022 11.181 5.48384 11.3566 5.61363 11.4864C5.74341 11.6162 5.91898 11.6898 6.10252 11.6914C6.28606 11.693 6.46288 11.6224 6.5949 11.4949L6.8 11.2898V15.9C6.8 16.0857 6.87375 16.2637 7.00503 16.395C7.1363 16.5263 7.31435 16.6 7.5 16.6H8.9C9.08565 16.6 9.2637 16.5263 9.39497 16.395C9.52625 16.2637 9.6 16.0857 9.6 15.9V14.5C9.6 14.3143 9.67375 14.1363 9.80503 14.005C9.9363 13.8737 10.1143 13.8 10.3 13.8H11.7C11.8857 13.8 12.0637 13.8737 12.195 14.005C12.3263 14.1363 12.4 14.3143 12.4 14.5V15.9C12.4 16.0857 12.4738 16.2637 12.605 16.395C12.7363 16.5263 12.9143 16.6 13.1 16.6H14.5C14.6857 16.6 14.8637 16.5263 14.995 16.395C15.1263 16.2637 15.2 16.0857 15.2 15.9V11.2898L15.4051 11.4949C15.5371 11.6224 15.7139 11.693 15.8975 11.6914C16.081 11.6898 16.2566 11.6162 16.3864 11.4864C16.5162 11.3566 16.5898 11.181 16.5914 10.9975C16.593 10.8139 16.5224 10.6371 16.3949 10.5051L11.4949 5.6051V5.6051Z" fill="#21252B"/>
</svg>
