<svg width="16" height="16" viewBox="0 0 16 16" fill="none" xmlns="http://www.w3.org/2000/svg">
<rect x="1" y="1" width="14" height="14" rx="3" fill="#C686FF"/>
<path d="M3.2 5.6C3.2 5.28174 3.32643 4.97652 3.55147 4.75147C3.77651 4.52643 4.08174 4.4 4.4 4.4H8C8.31826 4.4 8.62348 4.52643 8.84852 4.75147C9.07357 4.97652 9.2 5.28174 9.2 5.6V10.4C9.2 10.7183 9.07357 11.0235 8.84852 11.2485C8.62348 11.4736 8.31826 11.6 8 11.6H4.4C4.08174 11.6 3.77651 11.4736 3.55147 11.2485C3.32643 11.0235 3.2 10.7183 3.2 10.4V5.6ZM10.7318 6.2636C10.6321 6.3134 10.5483 6.38995 10.4897 6.48469C10.4311 6.57942 10.4001 6.6886 10.4 6.8V9.2C10.4001 9.3114 10.4311 9.42058 10.4897 9.51532C10.5483 9.61005 10.6321 9.68661 10.7318 9.7364L11.9318 10.3364C12.0232 10.3821 12.1249 10.4037 12.227 10.3991C12.3291 10.3945 12.4284 10.3639 12.5154 10.3101C12.6023 10.2564 12.6741 10.1813 12.724 10.092C12.7738 10.0028 12.7999 9.90224 12.8 9.8V6.2C12.7999 6.09777 12.7738 5.99724 12.724 5.90796C12.6741 5.81869 12.6023 5.74362 12.5154 5.68988C12.4284 5.63615 12.3291 5.60553 12.227 5.60093C12.1249 5.59633 12.0232 5.6179 11.9318 5.6636L10.7318 6.2636Z" fill="#21252B"/>
</svg>
